<svg id="eEk2fCtDIVL1" xmlns="http://www.w3.org/2000/svg" xmlns:xlink="http://www.w3.org/1999/xlink" viewBox="0 0 1281 626" shape-rendering="geometricPrecision" text-rendering="geometricPrecision">
<style><![CDATA[
#eEk2fCtDIVL2_ts {animation: eEk2fCtDIVL2_ts__ts 1100ms linear infinite normal forwards}@keyframes eEk2fCtDIVL2_ts__ts { 0% {transform: translate(443.07749px,147.792999px) scale(1,1)} 9.090909% {transform: translate(443.07749px,147.792999px) scale(1,1)} 27.272727% {transform: translate(443.07749px,147.792999px) scale(0.3,0.3)} 45.454545% {transform: translate(443.07749px,147.792999px) scale(1,1)} 100% {transform: translate(443.07749px,147.792999px) scale(1,1)}} #eEk2fCtDIVL3_ts {animation: eEk2fCtDIVL3_ts__ts 1100ms linear infinite normal forwards}@keyframes eEk2fCtDIVL3_ts__ts { 0% {transform: translate(147.692505px,147.792999px) scale(1,1)} 18.181818% {transform: translate(147.692505px,147.792999px) scale(0.3,0.3)} 36.363636% {transform: translate(147.692505px,147.792999px) scale(1,1)} 100% {transform: translate(147.692505px,147.792999px) scale(1,1)}} #eEk2fCtDIVL4_ts {animation: eEk2fCtDIVL4_ts__ts 1100ms linear infinite normal forwards}@keyframes eEk2fCtDIVL4_ts__ts { 0% {transform: translate(738.462511px,147.792999px) scale(1,1)} 18.181818% {transform: translate(738.462511px,147.792999px) scale(1,1)} 36.363636% {transform: translate(738.462511px,147.792999px) scale(0.3,0.3)} 54.545455% {transform: translate(738.462511px,147.792999px) scale(1,1)} 100% {transform: translate(738.462511px,147.792999px) scale(1,1)}} #eEk2fCtDIVL5_ts {animation: eEk2fCtDIVL5_ts__ts 1100ms linear infinite normal forwards}@keyframes eEk2fCtDIVL5_ts__ts { 0% {transform: translate(1033.846502px,443.378505px) scale(1,1)} 63.636364% {transform: translate(1033.846502px,443.378505px) scale(1,1)} 81.818182% {transform: translate(1033.846502px,443.378505px) scale(0.3,0.3)} 100% {transform: translate(1033.846502px,443.378505px) scale(1,1)}} #eEk2fCtDIVL6_ts {animation: eEk2fCtDIVL6_ts__ts 1100ms linear infinite normal forwards}@keyframes eEk2fCtDIVL6_ts__ts { 0% {transform: translate(145.545356px,443.379007px) scale(1,1)} 36.363636% {transform: translate(145.545356px,443.379007px) scale(1,1)} 54.545455% {transform: translate(145.545356px,443.379007px) scale(0.3,0.3)} 72.727273% {transform: translate(145.545356px,443.379007px) scale(1,1)} 100% {transform: translate(145.545356px,443.379007px) scale(1,1)}} #eEk2fCtDIVL7_ts {animation: eEk2fCtDIVL7_ts__ts 1100ms linear infinite normal forwards}@keyframes eEk2fCtDIVL7_ts__ts { 0% {transform: translate(443.07749px,443.378505px) scale(1,1)} 45.454545% {transform: translate(443.07749px,443.378505px) scale(1,1)} 63.636364% {transform: translate(443.07749px,443.378505px) scale(0.3,0.3)} 81.818182% {transform: translate(443.07749px,443.378505px) scale(1,1)} 100% {transform: translate(443.07749px,443.378505px) scale(1,1)}} #eEk2fCtDIVL8_ts {animation: eEk2fCtDIVL8_ts__ts 1100ms linear infinite normal forwards}@keyframes eEk2fCtDIVL8_ts__ts { 0% {transform: translate(1033.846502px,147.792999px) scale(1,1)} 27.272727% {transform: translate(1033.846502px,147.792999px) scale(1,1)} 45.454545% {transform: translate(1033.846502px,147.792999px) scale(0.3,0.3)} 63.636364% {transform: translate(1033.846502px,147.792999px) scale(1,1)} 100% {transform: translate(1033.846502px,147.792999px) scale(1,1)}} #eEk2fCtDIVL9_ts {animation: eEk2fCtDIVL9_ts__ts 1100ms linear infinite normal forwards}@keyframes eEk2fCtDIVL9_ts__ts { 0% {transform: translate(738.462511px,443.378505px) scale(1,1)} 54.545455% {transform: translate(738.462511px,443.378505px) scale(1,1)} 72.727273% {transform: translate(738.462511px,443.378505px) scale(0.3,0.3)} 90.909091% {transform: translate(738.462511px,443.378505px) scale(1,1)} 100% {transform: translate(738.462511px,443.378505px) scale(1,1)}}
]]></style>
<g id="eEk2fCtDIVL2_ts" transform="translate(443.07749,147.792999) scale(1,1)"><path d="M623.592,78.8228v-78.8228h-49.231-196.923-49.231v78.8228h49.231v137.9402h-49.231v78.823h49.231h196.923h49.231v-78.823h-49.231v-137.9402h49.231Z" transform="translate(-475.89949,-147.792999)" fill="#ff6300"/></g><g id="eEk2fCtDIVL3_ts" transform="translate(147.692505,147.792999) scale(1,1)"><path d="M295.385,78.8228v-78.8228h-131.282L0,0v78.8228v52.5482v78.823v85.392h164.103v-85.392h98.461v-78.823h-98.461v-52.5482h131.282Z" transform="translate(-147.692505,-147.792999)"/></g><g id="eEk2fCtDIVL4_ts" transform="translate(738.462511,147.792999) scale(1,1)"><path d="M820.509,164.214v-164.214h-164.103v164.214v131.372h164.103h131.282v-131.372h-131.282Z" transform="translate(-804.098511,-147.792999)" fill="#ffed00"/></g><g id="eEk2fCtDIVL5_ts" transform="translate(1033.846502,443.378505) scale(1,1)"><path d="M1280,394.113v-65.685h-295.383v197.057h164.103v32.843h-164.103v65.685h295.383v-197.057h-164.1v-32.843h164.1Z" transform="translate(-1132.308502,-476.220505)"/></g><g id="eEk2fCtDIVL6_ts" transform="translate(145.545356,443.379007) scale(1,1)"><path d="M143.294,330.07h-12.012-131.282v295.586h88.6154h22.9746h31.704c83.873,0,152.091-66.293,152.091-147.793c0-81.499-68.234-147.793-152.091-147.793ZM119.795,527.127v-98.528h32.82v98.528h-32.82Z" transform="translate(-147.692505,-477.863007)" fill="#0040ff"/></g><g id="eEk2fCtDIVL7_ts" transform="translate(443.07749,443.378505) scale(1,1)"><path d="M328.207,328.428v295.585h295.385v-295.585h-295.385ZM493.951,527.127h-32.821v-98.529h32.821v98.529Z" transform="translate(-475.89949,-476.220505)"/></g><g id="eEk2fCtDIVL8_ts" transform="translate(1033.846502,147.792999) scale(1,1)"><path d="M1184.08,0l-50.84,65.8663L1081.06,0h-96.443v295.586h65.643.46v-98.627l32.7,98.627h98.22l32.7-98.627v98.627h.02h65.64L1280,0h-95.92Z" transform="translate(-1132.308502,-147.792999)" fill="#ff1600"/></g><g id="eEk2fCtDIVL9_ts" transform="translate(738.462511,443.378505) scale(1,1)"><path d="M855.873,328.428l-50.839,65.866-52.185-65.866h-96.443v295.585h65.641.46v-98.627l32.705,98.627h98.216l32.705-98.627v98.627h.017h65.641v-295.585h-95.918Z" transform="translate(-804.098511,-476.220505)" fill="#00b716"/></g></svg>
